<svg width="1200" height="1400" viewBox="0 0 1200 1400" fill="none" xmlns="http://www.w3.org/2000/svg">
  <rect width="1200" height="1400" rx="56" fill="#0C1523"/>
  <rect x="42" y="42" width="1116" height="1316" rx="40" stroke="rgba(255,255,255,0.12)"/>
  <circle cx="874" cy="220" r="234" fill="url(#paint0_radial)" fill-opacity="0.88"/>
  <circle cx="254" cy="1124" r="270" fill="url(#paint1_radial)" fill-opacity="0.72"/>
  <path d="M188 232H1012V762H188V232Z" fill="rgba(255,255,255,0.03)"/>
  <path d="M188 232H1012V762H188V232Z" stroke="rgba(255,255,255,0.12)"/>
  <path d="M266 322H752" stroke="#EAB308" stroke-width="14" stroke-linecap="round"/>
  <path d="M266 388H930" stroke="rgba(255,255,255,0.42)" stroke-width="10" stroke-linecap="round"/>
  <path d="M266 452H796" stroke="rgba(255,255,255,0.24)" stroke-width="10" stroke-linecap="round"/>
  <path d="M386 872C386 755.468 480.468 661 597 661C713.532 661 808 755.468 808 872V876C808 992.532 713.532 1087 597 1087C480.468 1087 386 992.532 386 876V872Z" fill="rgba(255,255,255,0.04)"/>
  <path d="M386 872C386 755.468 480.468 661 597 661C713.532 661 808 755.468 808 872V876C808 992.532 713.532 1087 597 1087C480.468 1087 386 992.532 386 876V872Z" stroke="rgba(255,255,255,0.12)"/>
  <path d="M597 740L698 783V868C698 942.402 655.065 1010.1 597 1042C538.935 1010.1 496 942.402 496 868V783L597 740Z" fill="#EAB308"/>
  <path d="M546 874L582 910L654 830" stroke="#0C1523" stroke-width="18" stroke-linecap="round" stroke-linejoin="round"/>
  <path d="M278 1172H926" stroke="rgba(255,255,255,0.18)" stroke-width="2"/>
  <path d="M278 1248H844" stroke="rgba(255,255,255,0.18)" stroke-width="2"/>
  <defs>
    <radialGradient id="paint0_radial" cx="0" cy="0" r="1" gradientUnits="userSpaceOnUse" gradientTransform="translate(874 220) rotate(90) scale(234)">
      <stop stop-color="#FBBF24"/>
      <stop offset="1" stop-color="#FBBF24" stop-opacity="0"/>
    </radialGradient>
    <radialGradient id="paint1_radial" cx="0" cy="0" r="1" gradientUnits="userSpaceOnUse" gradientTransform="translate(254 1124) rotate(90) scale(270)">
      <stop stop-color="#FB7185"/>
      <stop offset="1" stop-color="#FB7185" stop-opacity="0"/>
    </radialGradient>
  </defs>
</svg>
